<?xml version="1.0" encoding="UTF-8" standalone="no"?>
<svg
   width="437.1975mm"
   height="414.97249999999997mm"
   viewBox="0 0 437.1975 414.97249999999997"
   version="1.1"
   id="svg37"
   sodipodi:docname="amp-back-v2-Sketch.svg"
   inkscape:export-filename="/home/bart/prj/freecad/amp-back/amp-back-v2-Sketch.png"
   inkscape:export-xdpi="96"
   inkscape:export-ydpi="96"
   inkscape:version="1.1.1 (3bf5ae0d25, 2021-09-20)"
   xmlns:inkscape="http://www.inkscape.org/namespaces/inkscape"
   xmlns:sodipodi="http://sodipodi.sourceforge.net/DTD/sodipodi-0.dtd"
   xmlns="http://www.w3.org/2000/svg"
   xmlns:svg="http://www.w3.org/2000/svg">
  <defs
     id="defs41" />
  <sodipodi:namedview
     id="namedview39"
     pagecolor="#ffffff"
     bordercolor="#666666"
     borderopacity="1.0"
     inkscape:pageshadow="2"
     inkscape:pageopacity="0.0"
     inkscape:pagecheckerboard="0"
     inkscape:document-units="mm"
     showgrid="false"
     inkscape:zoom="0.5566182"
     inkscape:cx="825.52097"
     inkscape:cy="783.30173"
     inkscape:window-width="2560"
     inkscape:window-height="1576"
     inkscape:window-x="0"
     inkscape:window-y="280"
     inkscape:window-maximized="1"
     inkscape:current-layer="svg37" />
  <g
     id="Sketch"
     transform="translate(4.286250,410.686250) scale(1,-1)">
    <path
       id="Sketch_w0000"
       d="M 428.625 0.0 L 0.0 0.0 L 0.0 406.4 L 428.625 406.4 L 428.625 0.0 "
       stroke="#000000"
       stroke-width="0.35 px"
       style="stroke-width:0.35;stroke-miterlimit:4;stroke-dasharray:none;fill:none;fill-opacity:1;fill-rule: evenodd" />
    <circle
       cx="11.43"
       cy="393.7"
       r="2.38125"
       stroke="#000000"
       stroke-width="0.35 px"
       style="stroke-width:0.35;stroke-miterlimit:4;stroke-dasharray:none;fill:none"
       id="circle3" />
    <circle
       cx="417.195"
       cy="393.7"
       r="2.38125"
       stroke="#000000"
       stroke-width="0.35 px"
       style="stroke-width:0.35;stroke-miterlimit:4;stroke-dasharray:none;fill:none"
       id="circle5" />
    <circle
       cx="417.195"
       cy="19.05000000000001"
       r="2.38125"
       stroke="#000000"
       stroke-width="0.35 px"
       style="stroke-width:0.35;stroke-miterlimit:4;stroke-dasharray:none;fill:none"
       id="circle7" />
    <circle
       cx="11.43"
       cy="19.05000000000001"
       r="2.38125"
       stroke="#000000"
       stroke-width="0.35 px"
       style="stroke-width:0.35;stroke-miterlimit:4;stroke-dasharray:none;fill:none"
       id="circle9" />
    <circle
       cx="318.695"
       cy="328.19999999999976"
       r="2.0"
       stroke="#000000"
       stroke-width="0.35 px"
       style="stroke-width:0.35;stroke-miterlimit:4;stroke-dasharray:none;fill:none"
       id="circle11" />
    <circle
       cx="358.695"
       cy="328.19999999999976"
       r="2.0"
       stroke="#000000"
       stroke-width="0.35 px"
       style="stroke-width:0.35;stroke-miterlimit:4;stroke-dasharray:none;fill:none"
       id="circle13" />
    <path
       id="Sketch_w0007"
       d="M 328.6949999999998 338.1999999999999 L 348.6949999999998 338.1999999999999 A 4 4 0 0 0 352.695 334.2L 352.6949999999998 322.1999999999963 A 4 4 0 0 0 348.695 318.2L 328.6949999999998 318.1999999999999 A 4 4 0 0 0 324.695 322.2L 324.6949999999998 334.1999999999999 A 4 4 0 0 0 328.695 338.2"
       stroke="#000000"
       stroke-width="0.35 px"
       style="stroke-width:0.35;stroke-miterlimit:4;stroke-dasharray:none;fill:none;fill-opacity:1;fill-rule: evenodd" />
    <circle
       cx="139.7"
       cy="12.7"
       r="2.38125"
       stroke="#000000"
       stroke-width="0.35 px"
       style="stroke-width:0.35;stroke-miterlimit:4;stroke-dasharray:none;fill:none"
       id="circle16" />
    <circle
       cx="288.925"
       cy="12.7"
       r="2.38125"
       stroke="#000000"
       stroke-width="0.35 px"
       style="stroke-width:0.35;stroke-miterlimit:4;stroke-dasharray:none;fill:none"
       id="circle18" />
    <circle
       cx="214.3125"
       cy="393.7"
       r="2.38125"
       stroke="#000000"
       stroke-width="0.35 px"
       style="stroke-width:0.35;stroke-miterlimit:4;stroke-dasharray:none;fill:none"
       id="circle20" />
    <circle
       cx="11.43"
       cy="330.2"
       r="2.38125"
       stroke="#000000"
       stroke-width="0.35 px"
       style="stroke-width:0.35;stroke-miterlimit:4;stroke-dasharray:none;fill:none"
       id="circle22" />
    <circle
       cx="11.43"
       cy="174.625"
       r="2.38125"
       stroke="#000000"
       stroke-width="0.35 px"
       style="stroke-width:0.35;stroke-miterlimit:4;stroke-dasharray:none;fill:none"
       id="circle24" />
    <circle
       cx="417.19500000000005"
       cy="330.2"
       r="2.38125"
       stroke="#000000"
       stroke-width="0.35 px"
       style="stroke-width:0.35;stroke-miterlimit:4;stroke-dasharray:none;fill:none"
       id="circle26" />
    <circle
       cx="417.19500000000005"
       cy="174.625"
       r="2.38125"
       stroke="#000000"
       stroke-width="0.35 px"
       style="stroke-width:0.35;stroke-miterlimit:4;stroke-dasharray:none;fill:none"
       id="circle28" />
    <path
       id="Sketch_w0015"
       d="M 52.338605262249956 271.5972456375847 A 12.7 12.7 0 0 1 30.48 262.799L 30.48 67.91111856744453 A 12.7 12.7 0 0 1 51.9783 58.7525L 149.34377353335995 152.2874695925298 A 12.7 12.7 0 0 1 149.704 170.244L 52.338605262249956 271.5972456375847 "
       stroke="#000000"
       stroke-width="0.35 px"
       style="stroke-width:0.35;stroke-miterlimit:4;stroke-dasharray:none;fill:none;fill-opacity:1;fill-rule: evenodd" />
    <path
       id="Sketch_w0016"
       d="M 73.49918655371657 308.1 L 279.98520252932025 308.1 A 12.7 12.7 0 0 0 288.783 286.241L 181.3988963497483 183.0814891081046 A 12.7 12.7 0 0 0 163.442 183.442L 64.34058014989927 286.6017087141781 A 12.7 12.7 0 0 0 73.4992 308.1"
       stroke="#000000"
       stroke-width="0.35 px"
       style="stroke-width:0.35;stroke-miterlimit:4;stroke-dasharray:none;fill:none;fill-opacity:1;fill-rule: evenodd" />
    <path
       id="Sketch_w0017"
       d="M 265.1830018509901 162.7581962028476 A 12.7 12.7 0 0 1 247.226 163.119L 139.84150562935756 59.9586064339112 A 12.7 12.7 0 0 1 148.64 38.1L 355.12581349051453 38.099999999999994 A 12.7 12.7 0 0 1 364.284 59.5983L 265.1830018509901 162.7581962028476 "
       stroke="#000000"
       stroke-width="0.35 px"
       style="stroke-width:0.35;stroke-miterlimit:4;stroke-dasharray:none;fill:none;fill-opacity:1;fill-rule: evenodd" />
    <path
       id="Sketch_w0018"
       d="M 398.1450000000001 278.2888818656479 A 12.7 12.7 0 0 1 376.647 287.447L 279.281226727315 193.91253065788973 A 12.7 12.7 0 0 1 278.921 175.956L 376.28639356608886 74.60275558205907 A 12.7 12.7 0 0 1 398.145 83.401L 398.1450000000001 278.2888818656479 "
       stroke="#000000"
       stroke-width="0.35 px"
       style="stroke-width:0.35;stroke-miterlimit:4;stroke-dasharray:none;fill:none;fill-opacity:1;fill-rule: evenodd" />
    <title
       id="title34">b'Sketch'</title>
  </g>
</svg>
